# xmcd
#
# Track frame offsets: 
#        150
#        6098
#        27145
#        48394
#        62026
#        76545
#        91410
#        112777
#        143384
#        161961
#        183691
#        212249
#        253591
#        277594
#
# Disc length: 3875 seconds
#
# Revision: 1
# Processed by: cddbd v1.5.1PL2 Copyright (c) Steve Scherf et al.
# Submitted via: ExactAudioCopy v0.95b3
#
DISCID=ac0f210e
DTITLE=Marty Stuart - Badlands: Ballads Of The Lakota
DYEAR=2005
DGENRE=Country
TTITLE0=Everette Helper's Song
TTITLE1=Badlands
TTITLE2=Trip To Little Big Horn
TTITLE3=Old Man's Vision
TTITLE4=Wounded Knee
TTITLE5=Big Foot
TTITLE6=Hotchkiss Gunner's Lament
TTITLE7=Broken Promise Land
TTITLE8=Casino
TTITLE9=So You Want To Be An Indian?
TTITLE10=Walking Through The Prayers
TTITLE11=Three Chiefs
TTITLE12=Listen To The Children
TTITLE13=Untitled
EXTD=
EXTT0=
EXTT1=
EXTT2=
EXTT3=
EXTT4=
EXTT5=
EXTT6=
EXTT7=
EXTT8=
EXTT9=
EXTT10=
EXTT11=
EXTT12=
EXTT13=
PLAYORDER=
